<?xml version="1.0" standalone="no"?>
<!DOCTYPE svg PUBLIC "-//W3C//DTD SVG 20010904//EN"
 "http://www.w3.org/TR/2001/REC-SVG-20010904/DTD/svg10.dtd">
<svg version="1.0" xmlns="http://www.w3.org/2000/svg"
 width="256.000000pt" height="256.000000pt" viewBox="0 0 256.000000 256.000000"
 preserveAspectRatio="xMidYMid meet">
<metadata>
Created by potrace 1.11, written by Peter Selinger 2001-2013
</metadata>
<g transform="translate(0.000000,256.000000) scale(0.100000,-0.100000)"
fill="#000000" stroke="none">
<path d="M498 2237 c-42 -15 -81 -51 -99 -91 -17 -37 -19 -70 -19 -326 l0
-285 -62 -40 c-83 -53 -168 -141 -206 -213 -130 -243 -23 -564 226 -676 42
-19 42 -19 42 -73 0 -124 87 -200 222 -194 35 2 49 -2 57 -16 11 -17 11 -17 9
0 -3 17 5 19 70 20 56 2 71 -1 67 -11 -3 -8 -5 -16 -5 -18 0 -2 -5 -4 -11 -4
-5 0 -8 4 -5 8 3 5 -1 9 -9 9 -8 0 -12 -4 -9 -8 2 -4 0 -11 -6 -14 -6 -4 -10
-3 -9 2 4 22 -3 23 -19 3 l-19 -23 -15 22 c-11 16 -17 18 -20 9 -3 -7 -19 -13
-39 -13 -19 0 -34 -5 -34 -12 0 -6 -4 -15 -9 -20 -5 -5 -6 -3 -2 5 4 6 2 12
-3 12 -6 0 -11 5 -11 11 0 5 4 8 9 4 5 -3 12 -1 16 5 4 6 11 7 17 4 6 -4 8 -2
5 4 -8 11 -25 11 -43 0 -6 -4 -21 -5 -33 -3 -17 3 -21 0 -17 -10 5 -14 -21
-36 -41 -35 -4 1 3 7 16 14 16 9 20 16 12 20 -9 6 -9 12 1 24 12 15 11 16 -4
3 -10 -7 -16 -17 -13 -21 3 -5 1 -11 -5 -15 -5 -3 -10 -1 -10 5 0 8 -13 4 -33
-8 -25 -14 -34 -16 -34 -6 0 7 3 11 6 9 4 -2 15 3 26 11 10 8 14 14 8 14 -7 0
-14 -4 -18 -9 -3 -5 -17 -8 -30 -5 -19 3 -25 0 -25 -13 0 -15 2 -16 10 -3 7
12 9 10 7 -7 -1 -19 -3 -20 -17 -9 -23 20 -50 27 -47 13 1 -7 7 -16 12 -20 6
-5 3 -7 -7 -4 -9 3 -24 -1 -35 -8 -16 -13 -15 -14 17 -10 19 2 39 4 43 4 5 1
5 6 1 13 -4 7 -3 8 4 4 6 -4 8 -14 5 -23 -5 -12 -3 -14 8 -8 8 5 11 4 6 0 -10
-11 -39 -16 -32 -6 10 18 -26 6 -42 -13 -18 -21 -18 -21 5 -2 14 13 22 15 22
6 0 -6 6 -10 14 -7 8 3 17 3 20 -1 16 -15 33 -8 30 13 -2 23 17 29 33 10 4 -4
2 -5 -4 -1 -8 4 -13 1 -13 -8 0 -19 11 -20 29 -4 11 10 13 10 7 1 -10 -18 4
-16 26 4 15 14 19 14 16 3 -2 -8 -7 -18 -13 -22 -6 -5 -5 -12 4 -20 9 -8 11
-9 7 -1 -9 17 12 27 29 13 8 -6 16 -7 19 -2 9 14 56 21 63 9 3 -5 1 -7 -5 -3
-6 3 -13 2 -16 -3 -7 -11 13 -9 32 3 7 4 16 5 20 1 3 -3 0 -10 -8 -15 -11 -7
-11 -10 -2 -10 7 0 18 11 24 25 9 19 14 22 25 14 7 -6 23 -9 35 -6 23 6 23 6
3 -10 -20 -15 -20 -15 2 -10 12 2 32 -2 44 -11 12 -8 19 -10 15 -4 -4 7 -3 12
3 12 6 0 9 6 7 13 -1 6 -1 9 1 4 3 -4 9 -4 15 -1 5 3 8 -1 6 -9 -2 -9 0 -16 5
-16 21 -2 27 0 27 10 0 5 -5 7 -10 4 -6 -3 -10 -1 -10 4 0 6 4 11 9 11 11 0
32 -25 26 -31 -2 -3 4 -5 14 -5 11 0 17 6 14 13 -3 7 -10 10 -17 6 -6 -3 -5 0
2 8 11 12 15 11 23 -4 6 -9 15 -15 20 -11 5 3 18 0 27 -7 9 -7 14 -9 10 -5 -7
8 14 23 54 39 12 4 15 2 12 -8 -3 -8 -12 -11 -19 -9 -7 3 -16 1 -19 -5 -9 -14
14 -25 27 -12 7 7 14 5 24 -7 8 -9 12 -11 8 -5 -3 7 -2 20 3 30 9 14 10 14 16
-5 9 -26 24 -29 33 -6 4 12 8 13 14 3 10 -16 37 -20 46 -7 3 7 1 8 -5 4 -8 -5
-10 -2 -6 8 3 9 10 16 16 16 5 0 6 -4 3 -10 -3 -5 1 -10 9 -10 9 0 16 6 16 13
0 9 3 8 9 -2 7 -11 9 -11 13 0 3 9 6 9 11 -3 4 -13 1 -16 -14 -13 -10 2 -19 0
-19 -6 0 -10 28 -8 49 5 9 6 19 3 29 -10 13 -16 14 -17 9 -1 -4 9 -2 17 4 17
6 0 7 5 3 12 -4 7 -3 8 5 4 6 -4 9 -12 5 -17 -3 -5 0 -8 8 -7 8 2 12 -5 10
-17 -2 -16 -1 -17 7 -5 5 8 7 18 5 22 -3 4 2 8 11 8 9 0 14 -3 12 -8 -3 -4 8
-7 23 -7 16 -1 26 3 24 7 -3 5 -9 6 -14 3 -5 -3 -11 -1 -15 4 -3 6 4 8 17 6
12 -3 26 1 31 8 6 8 7 7 4 -4 -3 -9 1 -16 9 -16 7 0 11 4 8 9 -3 4 2 5 11 2 9
-4 22 1 31 12 9 13 13 14 12 4 -3 -16 23 -21 35 -5 5 6 7 3 4 -7 -7 -19 19
-33 29 -16 4 6 3 8 -3 5 -5 -3 -10 0 -10 7 0 7 6 13 13 13 7 0 11 -4 8 -9 -3
-4 1 -8 10 -8 8 0 16 6 19 13 2 7 8 8 13 3 5 -5 4 -11 -3 -13 -21 -8 -15 -22
7 -16 11 3 17 9 14 14 -3 5 -2 9 3 8 4 -1 10 0 13 1 14 6 78 5 74 -1 -2 -4
-13 -6 -24 -4 -11 2 -20 0 -20 -5 0 -13 29 -20 36 -9 3 6 13 8 21 5 9 -4 12
-1 7 7 -3 6 6 -1 20 -18 25 -27 26 -27 11 -4 -14 24 -14 27 0 33 9 3 14 2 11
-3 -3 -4 5 -13 18 -19 21 -9 23 -8 19 16 -3 26 -3 26 6 5 6 -13 15 -23 21 -23
12 0 14 16 3 23 -5 2 -2 2 5 1 6 -2 12 2 12 9 0 7 9 -1 20 -18 11 -16 20 -25
20 -19 0 6 13 10 30 9 16 -1 35 2 42 6 7 4 18 3 25 -3 9 -7 14 -6 19 6 5 14 9
14 36 0 18 -10 27 -11 23 -4 -5 9 -1 10 16 5 l24 -8 -24 20 c-17 14 -21 22
-12 27 7 5 10 2 9 -6 -4 -16 80 -19 101 -4 11 8 13 8 7 -1 -5 -9 1 -13 19 -13
14 0 24 -4 20 -9 -3 -5 -1 -12 4 -16 6 -3 8 6 5 22 l-4 28 16 -25 15 -25 -6
30 c-4 24 -3 26 5 13 6 -10 17 -15 26 -11 14 5 15 3 5 -18 -11 -22 -11 -23 3
-5 9 10 13 22 11 26 -3 5 2 10 10 13 10 4 12 1 8 -11 -6 -15 -4 -15 9 -4 14
11 18 10 27 -5 9 -15 10 -13 6 12 l-6 30 15 -25 c8 -14 15 -19 16 -12 0 18 41
15 57 -6 13 -15 13 -15 4 5 -14 29 -14 40 1 25 7 -7 17 -12 23 -12 5 0 2 5 -7
11 -10 5 -18 15 -18 20 0 6 4 8 9 4 5 -3 13 0 17 6 4 7 3 9 -3 6 -6 -4 -16 -1
-21 6 -7 8 -32 13 -62 12 -27 -1 -50 2 -50 5 0 4 -7 7 -15 7 -11 0 -12 -4 -5
-11 5 -5 10 -14 10 -19 0 -5 -7 -1 -16 8 -9 8 -13 23 -10 33 5 15 4 15 -8 -1
-8 -11 -12 -26 -9 -35 4 -14 3 -15 -5 -2 -6 8 -8 19 -5 25 4 5 -4 1 -17 -10
l-24 -20 19 30 c13 21 14 26 3 18 -8 -7 -19 -9 -23 -5 -5 4 -5 2 -2 -4 4 -7 0
-15 -9 -18 -12 -5 -14 -1 -9 17 3 12 3 18 -2 12 -13 -16 -47 -19 -37 -3 6 10
5 11 -8 1 -8 -7 -18 -10 -22 -6 -3 4 -17 8 -29 10 -17 2 -19 1 -7 -6 8 -5 18
-7 24 -4 5 4 6 1 1 -7 -6 -9 -4 -11 6 -5 12 7 12 5 1 -6 -10 -10 -15 -11 -20
-2 -4 6 -21 11 -38 11 -17 -1 -37 3 -44 7 -8 5 -11 4 -7 -3 5 -6 -1 -8 -14 -5
-14 4 -17 8 -9 13 7 5 -1 7 -18 6 -17 -1 -34 -5 -39 -9 -4 -5 0 -5 8 -2 19 7
45 -20 29 -30 -6 -4 -9 -1 -8 7 2 7 -5 13 -15 13 -10 0 -22 7 -27 15 -5 8 -12
11 -16 7 -4 -3 -1 -15 7 -24 12 -16 12 -17 -1 -6 -14 11 -21 13 -38 13 -5 0
-9 6 -9 14 0 15 55 18 285 15 88 0 139 22 182 78 l35 46 1 812 c2 867 2 859
-48 912 -56 60 -2 57 -956 58 -480 0 -882 -3 -894 -8z m-118 -1084 l-1 -158
-21 40 c-31 57 -34 159 -6 225 11 28 22 50 24 50 2 0 4 -71 4 -157z m1418
-816 c50 -1 86 -6 85 -12 -1 -5 -7 -11 -14 -14 -6 -2 -9 1 -5 7 3 5 -2 9 -12
8 -9 0 -20 -8 -24 -16 -6 -13 -7 -13 -7 1 -1 20 -38 20 -52 -1 -9 -13 -10 -12
-5 3 3 9 1 17 -4 17 -6 0 -10 -6 -11 -12 0 -10 -2 -10 -6 0 -2 6 -9 12 -14 12
-6 0 -8 -4 -5 -9 7 -10 -20 -9 -30 2 -4 4 -14 1 -22 -6 -12 -9 -16 -9 -19 1
-3 6 -9 12 -14 12 -6 0 -7 -5 -3 -12 4 -6 3 -8 -4 -4 -5 3 -12 3 -14 -2 -1 -4
-10 0 -19 9 -15 15 -13 16 23 17 21 1 38 -3 38 -9 0 -6 7 -3 16 5 8 9 20 13
25 10 6 -3 49 -7 97 -7z m-972 -24 c-10 -10 -19 5 -10 18 6 11 8 11 12 0 2 -7
1 -15 -2 -18z m123 5 c-12 -22 -21 -24 -12 -2 6 15 4 15 -19 0 -23 -15 -27
-15 -41 -2 -12 12 -17 13 -20 3 -2 -6 -8 -9 -12 -5 -17 16 10 29 60 27 49 -2
53 -4 44 -21z m232 10 c0 -10 2 -10 6 0 7 18 33 14 32 -5 0 -11 -3 -13 -6 -5
-2 6 -10 9 -16 5 -17 -10 -67 -13 -67 -4 0 22 49 30 51 9z m79 -5 c0 -14 -2
-15 -9 -4 -7 11 -9 11 -14 0 -4 -10 -6 -9 -6 4 -1 9 6 17 14 17 8 0 15 -8 15
-17z m194 0 c3 -8 1 -11 -4 -8 -6 3 -10 0 -10 -7 0 -8 -5 -6 -11 5 -6 9 -15
15 -20 12 -5 -4 -7 -11 -4 -16 3 -5 -1 -6 -9 -3 -9 3 -16 10 -16 16 0 5 -5 6
-10 3 -6 -4 -7 -12 -3 -18 3 -7 -3 -4 -15 7 -20 18 -22 18 -28 1 -6 -16 -8
-16 -16 -1 -8 14 -13 15 -24 5 -11 -9 -14 -8 -14 3 0 20 176 22 184 1z m56 6
c0 -5 -4 -7 -10 -4 -9 6 -14 -8 -11 -28 1 -5 -3 -6 -9 -2 -6 3 -7 11 -4 17 4
6 0 14 -7 19 -10 6 -6 9 14 9 15 0 27 -5 27 -11z m67 -9 c11 -16 10 -18 -2
-14 -8 4 -15 10 -15 16 0 5 -4 7 -8 4 -4 -2 -14 -1 -22 5 -12 7 -9 9 10 9 14
0 30 -8 37 -20z m228 -18 c-3 -3 -11 0 -18 7 -9 10 -8 11 6 5 10 -3 15 -9 12
-12z m-1240 -2 c3 -5 1 -10 -4 -10 -6 0 -11 5 -11 10 0 6 2 10 4 10 3 0 8 -4
11 -10z m1620 0 c3 -5 1 -10 -4 -10 -6 0 -11 5 -11 10 0 6 2 10 4 10 3 0 8 -4
11 -10z m210 -19 c-3 -2 -16 -6 -28 -8 -15 -2 -18 0 -9 5 14 9 45 12 37 3z
m58 -4 c-2 -4 -5 -6 -7 -4 -3 1 -15 -8 -29 -21 -17 -16 -24 -18 -24 -8 0 8 5
14 11 13 5 -1 11 4 12 11 3 20 3 20 22 18 9 -2 16 -6 15 -9z m-283 -37 c0 -5
-5 -10 -11 -10 -5 0 -7 5 -4 10 3 6 8 10 11 10 2 0 4 -4 4 -10z m-1615 -22 c4
-3 2 -9 -3 -12 -5 -3 -15 1 -21 8 -10 11 -9 14 3 12 9 -1 18 -5 21 -8z m208
-3 c-3 -9 -8 -14 -10 -11 -3 3 -2 9 2 15 9 16 15 13 8 -4z m611 7 c3 -5 -1 -9
-9 -9 -8 0 -12 4 -9 9 3 4 7 8 9 8 2 0 6 -4 9 -8z m633 -14 c2 -18 0 -20 -7
-8 -12 18 -13 30 -2 30 4 0 9 -10 9 -22z m-1082 3 c3 -5 2 -12 -3 -15 -5 -3
-9 1 -9 9 0 17 3 19 12 6z m203 -22 c-3 -8 -7 -3 -11 10 -4 17 -3 21 5 13 5
-5 8 -16 6 -23z m937 13 c-3 -3 -11 0 -18 7 -9 10 -8 11 6 5 10 -3 15 -9 12
-12z m-735 4 c0 -3 -4 -8 -10 -11 -5 -3 -10 -1 -10 4 0 6 5 11 10 11 6 0 10
-2 10 -4z m646 -3 c-8 -8 -86 -12 -82 -4 2 3 23 7 46 7 22 1 39 -1 36 -3z
m-886 -13 c0 -5 -2 -10 -4 -10 -3 0 -8 5 -11 10 -3 6 -1 10 4 10 6 0 11 -4 11
-10z"/>
<path d="M886 318 c3 -4 11 -5 19 -1 21 7 19 12 -4 10 -11 0 -18 -5 -15 -9z"/>
<path d="M704 320 c2 -16 20 -14 24 2 3 10 2 10 -6 -1 -7 -9 -11 -10 -15 -2
-4 7 -5 8 -3 1z"/>
<path d="M319 305 c-1 -3 -3 -9 -4 -15 -1 -5 -3 -13 -4 -17 -1 -5 -6 -1 -11 7
-8 13 -10 12 -10 -3 0 -10 -4 -16 -9 -12 -11 6 -6 -34 5 -44 4 -3 4 2 1 12 -5
12 0 21 17 29 15 6 24 18 23 29 -1 18 -5 25 -8 14z"/>
<path d="M2467 299 c7 -7 15 -10 18 -7 3 3 -2 9 -12 12 -14 6 -15 5 -6 -5z"/>
<path d="M2494 258 c-4 -7 -4 -10 1 -6 4 4 15 2 24 -5 14 -11 14 -10 2 6 -16
20 -18 21 -27 5z"/>
<path d="M670 202 c0 -4 9 -13 20 -20 19 -12 20 -11 8 8 -13 20 -28 27 -28 12z"/>
<path d="M2136 193 c-6 -14 -5 -15 5 -6 7 7 10 15 7 18 -3 3 -9 -2 -12 -12z"/>
<path d="M2180 200 c0 -5 5 -10 11 -10 5 0 7 5 4 10 -3 6 -8 10 -11 10 -2 0
-4 -4 -4 -10z"/>
<path d="M1645 190 c-3 -5 -1 -10 4 -10 6 0 11 5 11 10 0 6 -2 10 -4 10 -3 0
-8 -4 -11 -10z"/>
<path d="M1863 185 c0 -8 4 -12 9 -9 5 3 6 10 3 15 -9 13 -12 11 -12 -6z"/>
<path d="M1470 179 c0 -6 4 -8 9 -5 5 4 11 1 13 -6 3 -8 6 -7 10 3 4 10 -1 15
-13 16 -10 1 -19 -3 -19 -8z"/>
</g>
</svg>
